<svg xmlns="http://www.w3.org/2000/svg" width="24" height="24" viewBox="0 0 24 24"><g fill="none" fill-rule="evenodd"><rect width="24" height="24"></rect><path stroke="#687176" stroke-linecap="round" stroke-linejoin="round" stroke-width="2" d="M11.8077873,3.00481111 C6.91650071,3.16156219 3,7.12885357 3,12 C3,16.9705627 7.07799756,21 12.1084625,21 C15.4810395,21 18.4255044,19.1888605 20,16.4972229 C19.1187139,16.8222951 18.1647194,17 17.1687194,17 C12.697195,17 9.07230832,13.418278 9.07230832,9 C9.07230832,6.61322764 10.1301249,4.47057955 11.8077873,3.00481111 Z"></path><path stroke="#0194F3" stroke-linecap="round" stroke-linejoin="round" stroke-width="2" d="M14.75,6.75 L15.25,6.75 L15.25,7.25 L14.75,7.25 L14.75,6.75 Z M16,10.5 C17.0520892,10.4479108 17.7187559,10.2812441 18,10 C18.2812441,9.71875588 18.4479108,9.05208921 18.5,8 C18.521156,9.02115601 18.6878227,9.68782268 19,10 C19.3121773,10.3121773 19.978844,10.478844 21,10.5 C19.9719613,10.5280387 19.3052946,10.6947054 19,11 C18.6947054,11.3052946 18.5280387,11.9719613 18.5,13 C18.4487147,11.9487147 18.282048,11.282048 18,11 C17.717952,10.717952 17.0512853,10.5512853 16,10.5 Z"></path></g></svg>