<svg width="24" height="24" viewBox="0 0 24 24" fill="none" xmlns="http://www.w3.org/2000/svg">
<path d="M12.1508 15.0283C14.5409 15.0283 16.4786 13.1575 16.4786 10.8496C16.4786 8.54178 14.5409 6.6709 12.1508 6.6709C9.76061 6.6709 7.823 8.54178 7.823 10.8496C7.823 13.1575 9.76061 15.0283 12.1508 15.0283Z" fill="#FFD6CE"></path>
<path d="M18.8008 22.9783H17.5794L16.5841 19.1199C16.5238 18.9015 16.2976 18.7705 16.0865 18.8287C15.8603 18.887 15.7246 19.1054 15.7849 19.3092L16.7349 22.9638H7.38572L8.33572 19.3092C8.39604 19.0908 8.26033 18.8724 8.03413 18.8287C7.80794 18.7705 7.58175 18.9015 7.53652 19.1199L6.54128 22.9783H5.31985C5.09366 22.9783 4.92779 23.153 4.92779 23.3569C4.92779 23.5607 5.10874 23.7354 5.31985 23.7354H6.73731C6.73731 23.7354 6.73731 23.7354 6.75239 23.7354C6.78255 23.75 6.81271 23.75 6.85794 23.75C6.90318 23.75 6.93334 23.75 6.9635 23.7354H17.1421C17.1722 23.75 17.2175 23.75 17.2476 23.75C17.2778 23.75 17.3079 23.75 17.3532 23.7354C17.3532 23.7354 17.3532 23.7354 17.3683 23.7354H18.8008C19.027 23.7354 19.1929 23.5607 19.1929 23.3569C19.1929 23.153 19.0119 22.9783 18.8008 22.9783Z" fill="#FF6371"></path>
<path d="M6.57143 10.1362C6.57143 7.20965 9.02937 4.83636 12.0603 4.83636C15.0762 4.83636 17.5492 7.20965 17.5341 10.1508C17.5341 12.4804 15.9206 14.577 13.5984 15.2322C13.3873 15.2905 13.146 15.1594 13.0857 14.9556C13.0254 14.7517 13.146 14.5188 13.3722 14.4605C15.3476 13.8927 16.7198 12.1164 16.7198 10.1362C16.7198 7.66101 14.6238 5.63716 12.0603 5.63716C9.49683 5.63716 7.40079 7.66101 7.40079 10.1362C7.40079 12.4804 9.25556 14.4169 11.6381 14.6207V11.3514C11.1122 11.1811 10.7333 10.7014 10.7333 10.1363C10.7333 9.42867 11.3274 8.85502 12.0603 8.85502C12.7932 8.85502 13.3873 9.42867 13.3873 10.1363C13.3873 10.7014 13.0084 11.1811 12.4825 11.3514V15.0284C12.4825 15.2613 12.2865 15.4361 12.0603 15.4361C9.02937 15.4361 6.57143 13.0628 6.57143 10.1362Z" fill="#FF6371"></path>
<path fill-rule="evenodd" clip-rule="evenodd" d="M21.5 4.80728V5.54984C21.5 6.24872 21.1532 6.86024 20.55 7.23881C20.8667 8.11241 21.0325 9.04425 21.0476 9.99065C21.0627 10.9079 20.927 11.8106 20.6556 12.6697H21.0325C21.2738 12.6697 21.4548 12.859 21.4548 13.0774V13.8199C21.4548 14.9556 20.5048 15.8729 19.3286 15.8729C19.1627 15.8729 19.0119 15.8438 18.8611 15.8147C17.6397 17.0377 15.7397 18.2316 14.0508 18.6102C13.7944 19.4692 12.9802 20.0807 12.0151 20.0807C11.05 20.0807 10.2357 19.4547 9.97937 18.6102C8.06429 18.1879 6.39048 17.1687 5.15397 15.7855C4.9881 15.8292 4.80714 15.8583 4.62619 15.8583C3.45 15.8583 2.5 14.9411 2.5 13.8054V13.0628C2.5 12.8298 2.69603 12.6551 2.92222 12.6551H3.3746C3.13333 11.8834 2.99762 11.0681 2.98254 10.2236C2.96746 9.20441 3.13333 8.19977 3.46508 7.26793C2.89206 6.88936 2.51508 6.26328 2.51508 5.54984V4.80728C2.51508 4.57432 2.71111 4.3996 2.9373 4.3996H5.16905C5.28968 4.254 5.41032 4.12296 5.54603 3.99192C6.75238 2.798 8.2754 1.96808 9.91905 1.58952L9.90397 0.65768C9.90397 0.42472 10.1 0.25 10.3262 0.25H13.7643C14.0056 0.25 14.1865 0.43928 14.1865 0.65768L14.1714 1.58952C15.7397 1.93896 17.1722 2.71064 18.3635 3.8172C18.5595 4.00648 18.7405 4.19576 18.9214 4.3996H21.0778C21.319 4.3996 21.5 4.58888 21.5 4.80728ZM13.3571 1.06536H10.7635V1.4148C10.7635 2.09912 11.3516 2.66696 12.0603 2.66696C12.769 2.66696 13.3571 2.11368 13.3571 1.4148V1.06536ZM3.3746 5.2004H5.96825V5.54984C5.96825 6.24872 5.38016 6.802 4.67143 6.802C3.9627 6.802 3.3746 6.23416 3.3746 5.54984V5.2004ZM3.35952 13.4559V13.8054C3.35952 14.4897 3.9627 15.0575 4.67143 15.0575C5.38016 15.0575 5.96825 14.5043 5.96825 13.8054V13.4559H3.35952ZM13.3571 18.0132C13.3571 18.7121 12.769 19.2654 12.0603 19.2654C11.3516 19.2654 10.7635 18.6975 10.7635 18.0132V17.6638H13.3722V18.0132H13.3571ZM19.3738 15.0575C20.0825 15.0575 20.6706 14.5043 20.6706 13.8054H20.6857V13.4559H18.077V13.8054C18.077 14.4897 18.65 15.0575 19.3738 15.0575ZM20.2786 9.97609C20.2937 10.8934 20.1429 11.7961 19.8413 12.6406H17.6548C17.4286 12.6406 17.2325 12.8153 17.2325 13.0482V13.7908C17.2325 14.4751 17.5794 15.0721 18.1071 15.4507C18.1373 15.4215 18.0808 15.4798 18.1071 15.4507C17.0516 16.499 15.5889 17.4017 14.1714 17.7657V17.2707C14.1714 17.0523 13.9905 16.863 13.7492 16.863H10.3111C10.0849 16.863 9.88889 17.0377 9.88889 17.2707V17.7657C8.35079 17.358 6.97857 16.5427 5.92302 15.4215C6.42064 15.043 6.75238 14.4606 6.75238 13.8054V13.0628C6.75238 12.8444 6.57143 12.6551 6.33016 12.6551H4.26429C3.99286 11.8834 3.84206 11.0681 3.82698 10.209C3.8119 9.30633 3.9627 8.41817 4.24921 7.57369C4.38492 7.60281 4.52063 7.61737 4.65635 7.61737C5.83254 7.61737 6.78254 6.70008 6.78254 5.5644V4.82184C6.78254 4.60344 6.54127 4.41416 6.3 4.41416C7.38571 3.39496 8.7127 2.69608 10.1603 2.37576C10.5222 3.03096 11.231 3.48232 12.0452 3.48232C12.8595 3.48232 13.5683 3.03096 13.9302 2.37576C15.3627 2.69608 16.6897 3.39496 17.7754 4.41416C17.5492 4.41416 17.2175 4.58888 17.2175 4.82184V5.5644C17.2175 6.70008 18.1675 7.61737 19.3437 7.61737C19.5095 7.61737 19.6603 7.60281 19.8111 7.55913C20.1127 8.33081 20.2635 9.14617 20.2786 9.97609ZM19.3738 6.802C20.0825 6.802 20.6706 6.24872 20.6706 5.54984H20.6857V5.2004H18.077V5.54984C18.077 6.23416 18.65 6.802 19.3738 6.802Z" fill="#FF6371"></path>
</svg>