<svg width="24" height="24" viewBox="0 0 24 24" fill="none" xmlns="http://www.w3.org/2000/svg">
<path d="M10.4242 21.6826V17.4127C10.4242 16.2222 11.4045 15.2539 12.6097 15.2539H16.3539C16.7396 15.2539 17.077 15.0952 17.3341 14.8571L20.1463 12.0793C20.6284 11.6031 20.757 10.8253 20.3552 10.2697C19.841 9.57131 18.8447 9.50782 18.2501 10.0951L15.7754 12.5237H8.11018C6.02113 12.5237 4.31775 14.2063 4.31775 16.2698V21.6826H10.4242Z" fill="#FFD6CE"></path>
<path d="M5.16946 7.20605V8.841C5.16946 10.0474 6.16577 11.0315 7.38706 11.0315C8.60836 11.0315 9.60467 10.0474 9.60467 8.841V7.26955C9.60467 7.25367 9.60467 7.22193 9.60467 7.20605H5.16946Z" fill="#FFD6CE"></path>
<path fill-rule="evenodd" clip-rule="evenodd" d="M20.4837 9.80963C20.2588 9.58741 19.9856 9.42868 19.6963 9.34931V1.39683C19.6963 1.36508 19.6963 1.33334 19.6803 1.30159V1.26984C19.6803 1.26191 19.6762 1.25 19.6722 1.2381C19.6682 1.22619 19.6642 1.21429 19.6642 1.20635C19.6642 1.19842 19.6602 1.19445 19.6562 1.19048C19.6521 1.18651 19.6481 1.18254 19.6481 1.17461C19.6401 1.16667 19.6361 1.15873 19.6321 1.1508C19.628 1.14286 19.624 1.13492 19.616 1.12699L19.5999 1.11111C19.5838 1.09524 19.5678 1.07937 19.5356 1.06349H19.5196C19.5035 1.05556 19.4914 1.04762 19.4794 1.03968C19.4673 1.03175 19.4553 1.02381 19.4392 1.01587H19.4071C19.4004 1.01587 19.3938 1.01315 19.386 1.00996C19.3749 1.00545 19.3616 1 19.3428 1H19.2142C19.2062 1 19.1942 1.00397 19.1821 1.00794C19.1701 1.0119 19.158 1.01587 19.15 1.01587H19.1339L13.6381 3.06352C13.4774 3.12701 13.381 3.26987 13.381 3.4286C13.381 3.58733 13.4774 3.74607 13.6381 3.79369L18.8768 5.74609V9.30169C18.5393 9.36518 18.2019 9.52391 17.9447 9.79376L15.5986 12.1112H8.11014C5.79612 12.1112 3.91597 13.9684 3.91597 16.2542V20.431C3.38399 20.6042 3 21.099 3 21.6825C3 22.4101 3.59715 23 4.33378 23C5.0704 23 5.66756 22.4101 5.66756 21.6825C5.66756 21.0874 5.26803 20.5844 4.71945 20.421V16.2542C4.71945 14.4129 6.24606 12.9049 8.11014 12.9049H15.7753C15.8878 12.9049 15.9843 12.8573 16.0646 12.7938L18.5233 10.3652C18.9089 9.98424 19.5356 9.98424 19.9213 10.3652C20.307 10.7462 20.307 11.3652 19.9213 11.7462L17.0448 14.5875C16.852 14.7779 16.611 14.8732 16.3539 14.8732H12.915C12.69 14.8732 12.5132 15.0478 12.5132 15.27V21.286H7.24238C7.01741 21.286 6.84064 21.4606 6.84064 21.6828C6.84064 21.905 7.01741 22.0796 7.24238 22.0796H12.915C13.1399 22.0796 13.3167 21.905 13.3167 21.6828V15.6668H16.3539C16.8199 15.6668 17.2698 15.4922 17.6073 15.1589L20.4677 12.3335C21.1747 11.6192 21.1747 10.5081 20.4837 9.80963ZM14.9237 3.46035L18.8768 1.98414V4.93656L14.9237 3.46035Z" fill="#FF6371"></path>
<path fill-rule="evenodd" clip-rule="evenodd" d="M4.75157 8.04764C4.75157 9.9048 6.27818 11.4128 8.15833 11.4128C10.0385 11.4128 11.5651 9.9048 11.5651 8.04764C11.5651 7.88891 11.549 7.74605 11.5329 7.6032L12.7703 7.60319C12.9953 7.60319 13.172 7.42858 13.172 7.20636C13.172 6.98413 12.9953 6.80953 12.7864 6.80953H11.3401C10.842 5.57142 9.60459 4.68252 8.1744 4.68252C6.61564 4.68252 5.314 5.71428 4.89619 7.11112V7.12699C4.79978 7.41271 4.75157 7.73017 4.75157 8.04764ZM10.7777 8.04764C10.7777 9.47623 9.60459 10.6191 8.1744 10.6191C6.7442 10.6191 5.55505 9.46035 5.55505 8.04764C5.55505 7.88891 5.57112 7.74605 5.60326 7.60319H10.7455C10.7616 7.74605 10.7777 7.88891 10.7777 8.04764ZM10.4563 6.79365C10.0224 5.99999 9.15464 5.4603 8.1744 5.4603C7.17808 5.4603 6.32639 5.99999 5.87644 6.79365H10.4563Z" fill="#FF6371"></path>
</svg>